<svg width="44" height="44" viewBox="0 0 44 44" fill="none" xmlns="http://www.w3.org/2000/svg">
    <path d="M22 44C15.8889 44 10.6944 41.8611 6.41667 37.5833C2.13889 33.3056 0 28.1111 0 22C0 15.8889 2.13889 10.6944 6.41667 6.41667C10.6944 2.13889 15.8889 0 22 0C22.3259 0 22.6722 0.0101853 23.0389 0.0305557C23.4056 0.050926 23.8741 0.0814814 24.4444 0.122222C22.9778 1.42593 21.837 3.03519 21.0222 4.95C20.2074 6.86482 19.8 8.88148 19.8 11C19.8 14.6667 21.0833 17.7833 23.65 20.35C26.2167 22.9167 29.3333 24.2 33 24.2C35.1185 24.2 37.1352 23.8231 39.05 23.0694C40.9648 22.3157 42.5741 21.2667 43.8778 19.9222C43.9185 20.4111 43.9491 20.8083 43.9694 21.1139C43.9898 21.4194 44 21.7148 44 22C44 28.1111 41.8611 33.3056 37.5833 37.5833C33.3056 41.8611 28.1111 44 22 44ZM22 40.3333C26.4407 40.3333 30.3111 38.9583 33.6111 36.2083C36.9111 33.4583 38.9685 30.2296 39.7833 26.5222C38.7648 26.9704 37.675 27.3065 36.5139 27.5306C35.3528 27.7546 34.1815 27.8667 33 27.8667C28.3148 27.8667 24.3324 26.2269 21.0528 22.9472C17.7731 19.6676 16.1333 15.6852 16.1333 11C16.1333 10.0222 16.2352 8.97315 16.4389 7.85278C16.6426 6.73241 17.0093 5.45926 17.5389 4.03333C13.5463 5.13333 10.2361 7.36389 7.60833 10.725C4.98056 14.0861 3.66667 17.8444 3.66667 22C3.66667 27.0926 5.44907 31.4213 9.01389 34.9861C12.5787 38.5509 16.9074 40.3333 22 40.3333Z" fill="white"/>
</svg>
    